<svg id="Layer_7" data-name="Layer 7" xmlns="http://www.w3.org/2000/svg" viewBox="0 0 400.71 246.67"><defs><style>.cls-1{fill:none;stroke:#fff;stroke-linecap:round;stroke-linejoin:round;stroke-width:9px;}</style></defs><title>logo</title><path class="cls-1" d="M-290.42-143.5l-0.08-24.17m1,63.33c-1-3.64-.84-6-0.84-10l0-3.2m74-96.75v99.95c0,22.39-16.64,40.72-37,40.72A35.17,35.17,0,0,1-279-85" transform="translate(448.23 277.33)"/><path class="cls-1" d="M-381.12-214.25v99.95c0,22.39-16.64,40.72-37,40.72A35.17,35.17,0,0,1-443.73-85" transform="translate(448.23 277.33)"/><path class="cls-1" d="M-156-60.87v-99.95" transform="translate(448.23 277.33)"/><path class="cls-1" d="M-216.35-129.67c0-13.75,10-25,22.17-25s22.17,11.25,22.17,25v32.33" transform="translate(448.23 277.33)"/><path class="cls-1" d="M-96.35-129.67c0-13.75,10-25,22.17-25S-52-143.42-52-129.67v32.33" transform="translate(448.23 277.33)"/><path class="cls-1" d="M-156-60.17c0,13.75-10,25-22.17,25s-22.17-11.25-22.17-25V-92.5" transform="translate(448.23 277.33)"/><path class="cls-1" d="M-96.69-207.67v106.83c0,13.75-10,25-22.17,25h-10.48" transform="translate(448.23 277.33)"/><path class="cls-1" d="M-172-247.83v67.33c0,13.75-10,25-22.17,25s-22.17-11.25-22.17-25" transform="translate(448.23 277.33)"/><path class="cls-1" d="M-172-180.5v-67.33c0-13.75,10-25,22.17-25s22.17,11.25,22.17,25" transform="translate(448.23 277.33)"/><path class="cls-1" d="M-52.35-247.83v67.33c0,13.75-10,25-22.17,25s-22.17-11.25-22.17-25" transform="translate(448.23 277.33)"/><line class="cls-1" x1="395.88" y1="96.83" x2="395.88" y2="29.5"/><path class="cls-1" d="M-88-239c0,12.19-11.25,22.17-25,22.17" transform="translate(448.23 277.33)"/><path class="cls-1" d="M-96.66-247.83c0-13.75,10-25,22.17-25s22.17,11.25,22.17,25" transform="translate(448.23 277.33)"/><line class="cls-1" x1="111.66" y1="88.83" x2="111.66" y2="156.17"/><line class="cls-1" x1="111.66" y1="156.17" x2="111.66" y2="88.83"/><path class="cls-1" d="M-380.88-189.13c0-13.75,10-25,22.17-25s22.17,11.25,22.17,25" transform="translate(448.23 277.33)"/><line class="cls-1" x1="351.57" y1="96.83" x2="351.57" y2="68.71"/><path class="cls-1" d="M-231-101.5V-127s-25.52-28.83-54.23-5.22" transform="translate(448.23 277.33)"/><path class="cls-1" d="M-275-111.5" transform="translate(448.23 277.33)"/><path class="cls-1" d="M-231-149v-43.17a22.06,22.06,0,0,0-22-22,22.06,22.06,0,0,0-22,22" transform="translate(448.23 277.33)"/><path class="cls-1" d="M-292.31-191.86h0a22.06,22.06,0,0,0-22-22,22.06,22.06,0,0,0-22,22" transform="translate(448.23 277.33)"/><path class="cls-1" d="M-275-136.37v24.88a22.06,22.06,0,0,1-22,22,22.06,22.06,0,0,1-22-22" transform="translate(448.23 277.33)"/><line class="cls-1" x1="173.23" y1="112.42" x2="173.23" y2="126.46"/><line class="cls-1" x1="173.23" y1="85.17" x2="173.23" y2="97.96"/><path class="cls-1" d="M-284.92-132.46a25.39,25.39,0,0,1-15.58,5.31,25.5,25.5,0,0,1-25.5-25.5,25.5,25.5,0,0,1,14.33-22.93" transform="translate(448.23 277.33)"/><path class="cls-1" d="M-311.67-175.57s33.84-21.09,80.67,27.24" transform="translate(448.23 277.33)"/><path class="cls-1" d="M-156-59V-72.33c0-13.75,9.83-25,21.83-25H-113" transform="translate(448.23 277.33)"/><path class="cls-1" d="M-156-117v-13.33c0-13.75,9.83-25,21.83-25H-113" transform="translate(448.23 277.33)"/><path class="cls-1" d="M-156-178.5v-13.33c0-13.75,9.83-25,21.83-25H-113" transform="translate(448.23 277.33)"/></svg>